<?xml version="1.0" standalone="no"?>
<!DOCTYPE svg PUBLIC "-//W3C//DTD SVG 20010904//EN"
 "http://www.w3.org/TR/2001/REC-SVG-20010904/DTD/svg10.dtd">
<svg version="1.0" xmlns="http://www.w3.org/2000/svg"
 width="500.000000pt" height="333.000000pt" viewBox="0 0 500.000000 333.000000"
 preserveAspectRatio="xMidYMid meet">
<metadata>
Created by potrace 1.16, written by Peter Selinger 2001-2019
</metadata>
<g transform="translate(0.000000,333.000000) scale(0.100000,-0.100000)"
fill="#000000" stroke="none">
<path d="M1491 3276 c-16 -17 -26 -46 -33 -95 -6 -38 -15 -68 -20 -65 -13 8
-9 -9 7 -30 8 -11 15 -25 15 -30 0 -6 -5 -4 -10 4 -8 12 -10 12 -10 1 0 -8 7
-19 15 -25 11 -7 18 -35 22 -82 5 -61 2 -79 -17 -122 -20 -43 -26 -50 -49 -47
-14 1 -35 -1 -46 -5 -19 -7 -19 -8 5 -14 29 -6 57 -9 86 -7 17 1 24 10 29 39
l8 37 9 -32 c8 -29 24 -50 33 -41 2 2 -4 26 -14 53 -20 57 -33 137 -21 130 4
-3 14 -25 21 -50 8 -28 16 -40 21 -32 4 7 6 -10 3 -38 -4 -48 -4 -49 5 -10 4
22 10 59 11 83 2 25 8 42 15 42 17 0 23 -21 13 -48 -6 -15 -5 -21 1 -17 6 4
10 -12 10 -39 0 -63 16 -58 24 7 4 29 18 69 32 90 13 20 27 52 31 70 3 17 12
36 20 40 7 4 13 13 13 18 0 6 -4 7 -10 4 -15 -9 -12 2 7 32 17 26 17 27 0 20
-15 -6 -17 0 -17 44 0 46 -1 49 -16 35 -17 -17 -59 -22 -49 -6 3 6 13 10 21
10 8 0 14 7 14 15 0 22 -49 19 -57 -2 -4 -10 -14 -23 -22 -30 -13 -9 -20 -7
-36 11 -25 30 -56 36 -72 16 -11 -13 -12 -13 -13 2 0 10 16 33 35 53 20 19 30
35 22 35 -7 0 -24 -11 -36 -24z"/>
<path d="M3050 2793 c-33 -12 -81 -70 -100 -120 -13 -35 -20 -79 -20 -126 0
-40 -4 -78 -9 -86 -15 -24 -2 -48 25 -43 16 3 24 0 24 -9 0 -8 10 -1 23 14 12
15 31 30 42 31 11 2 19 8 18 14 -1 5 7 18 19 28 21 19 21 19 16 -8 -3 -15 -1
-25 3 -22 5 3 9 -7 9 -23 0 -15 12 -71 26 -123 27 -99 28 -103 10 -330 -3 -37
-2 -54 2 -40 4 14 18 30 30 36 12 6 19 14 15 17 -3 4 5 7 18 7 19 0 21 -2 9
-10 -13 -8 -13 -10 2 -10 33 0 32 44 -2 109 -22 42 -30 69 -26 85 3 14 1 28
-5 32 -6 3 -8 15 -5 27 3 11 0 30 -7 41 -20 36 -35 109 -30 143 5 27 3 32 -10
27 -19 -7 -34 33 -17 50 8 8 14 7 21 -6 11 -20 50 -25 47 -5 -2 6 -14 17 -28
24 -23 11 -20 12 30 13 30 0 65 3 77 6 19 5 27 -6 72 -98 28 -56 51 -96 51
-88 0 8 -20 54 -45 102 -25 48 -45 94 -45 102 0 7 -6 25 -13 38 l-13 25 -18
-24 c-10 -14 -24 -22 -33 -19 -7 3 -11 2 -8 -4 5 -9 -36 -18 -82 -18 -23 -1
-24 1 -37 101 -4 28 -1 37 10 37 12 0 18 -11 16 -31 -1 -4 10 -17 25 -30 l25
-24 -20 39 c-23 42 -21 56 7 56 10 0 30 12 44 26 l26 25 15 -28 c8 -15 15 -24
16 -20 0 13 -29 77 -35 77 -4 0 -36 -16 -71 -36 -52 -29 -68 -44 -86 -82 -12
-26 -24 -51 -26 -55 -2 -5 5 -4 16 2 26 14 32 6 32 -44 0 -36 -6 -46 -51 -90
-41 -39 -50 -45 -46 -27 5 21 -2 27 -31 23 -23 -4 -3 41 34 75 41 38 43 56 8
52 -57 -6 -55 63 4 141 24 32 27 33 73 28 53 -7 64 3 24 21 -14 7 -27 12 -28
11 -1 0 -9 -3 -17 -6z"/>
<path d="M3602 2768 c-5 -7 -12 -24 -16 -38 -3 -14 -3 -19 0 -12 8 17 31 15
46 -5 7 -10 22 -20 33 -21 35 -6 38 -19 15 -52 -12 -17 -19 -35 -14 -38 5 -4
8 -5 6 -3 -4 8 41 51 54 51 9 0 11 -13 7 -42 -5 -52 -8 -55 -27 -35 -9 9 -27
13 -41 11 -14 -2 -37 -6 -51 -8 -16 -3 -27 1 -31 10 -9 24 -31 15 -42 -17 -14
-41 -14 -44 2 -30 8 6 16 8 19 5 4 -3 28 -9 55 -13 44 -7 46 -9 24 -18 l-25
-10 32 -31 c43 -42 43 -85 2 -129 -17 -18 -30 -36 -30 -41 0 -5 -9 -12 -20
-15 -11 -3 -20 -11 -20 -17 0 -7 7 -10 15 -6 23 8 18 -13 -7 -36 -16 -14 -18
-18 -6 -14 9 3 18 0 20 -6 3 -8 11 -7 27 2 25 13 23 3 -6 -32 -9 -10 -11 -18
-4 -22 5 -4 15 2 21 11 22 36 -2 -30 -26 -73 -41 -70 -28 -114 32 -114 18 0
35 -6 37 -12 10 -25 7 67 -5 149 -11 78 -11 87 15 177 15 53 27 107 27 121 0
14 3 25 8 25 14 -1 93 -188 102 -243 11 -68 62 -170 145 -293 36 -51 69 -108
74 -126 10 -30 10 -29 6 15 -2 27 -9 55 -16 63 -8 10 -7 17 5 29 14 14 17 13
31 -12 l15 -28 -6 29 c-5 22 -4 27 6 21 12 -8 12 -7 -6 55 -6 22 -8 23 -14 6
-5 -15 -10 -8 -23 30 l-17 49 3 -52 c3 -50 2 -52 -14 -37 -9 8 -23 30 -30 47
-11 25 -70 121 -84 135 -2 2 0 -12 4 -30 5 -19 29 -62 54 -97 51 -68 65 -111
24 -73 -31 29 -91 131 -93 156 0 12 -3 30 -7 41 -3 11 -9 40 -11 65 -10 79
-15 104 -31 150 -15 44 -15 44 -11 8 6 -53 -4 -54 -35 -4 -37 59 -66 146 -51
155 7 4 8 12 2 21 -12 19 -12 71 -1 89 14 21 44 -2 72 -54 13 -25 29 -43 36
-41 11 5 23 -15 23 -37 0 -7 -7 -3 -15 7 -9 12 -15 15 -15 7 0 -7 -6 -11 -14
-8 -10 4 -12 0 -9 -14 4 -15 2 -18 -13 -12 -15 6 -15 2 5 -26 17 -23 27 -29
34 -22 6 6 16 11 23 11 17 0 44 -85 44 -141 0 -26 4 -50 9 -53 12 -8 33 54 23
68 -30 40 -62 181 -62 274 0 42 -4 62 -9 53 -7 -11 -9 -11 -14 0 -4 11 -6 11
-6 1 -1 -7 -5 -10 -11 -7 -5 3 -10 1 -10 -6 0 -8 -4 -8 -15 1 -11 9 -15 9 -15
1 0 -23 -22 2 -45 51 -20 42 -33 56 -84 84 -71 39 -66 38 -79 22z"/>
<path d="M1235 2752 c-75 -48 -96 -93 -99 -212 -2 -47 -8 -98 -15 -114 -6 -16
-10 -30 -8 -33 2 -2 12 17 21 41 10 25 32 57 49 72 l32 27 14 -46 c17 -55 5
-108 -33 -154 -24 -30 -44 -113 -26 -113 22 0 8 -67 -25 -125 -36 -62 -46 -61
-20 2 21 50 13 51 -19 3 -15 -22 -31 -38 -36 -35 -14 8 9 66 39 98 17 18 20
26 9 22 -13 -5 -18 2 -23 37 -4 24 -2 56 4 71 16 42 12 46 -8 8 -14 -27 -16
-42 -9 -71 8 -32 5 -47 -30 -126 -22 -49 -47 -110 -57 -135 -9 -25 -28 -58
-41 -73 -14 -14 -23 -30 -19 -35 3 -5 -1 -11 -7 -14 -7 -2 -9 -8 -5 -13 13
-14 42 28 77 113 36 87 48 106 62 97 5 -3 2 -16 -7 -30 -44 -67 -104 -195 -99
-209 5 -12 14 -4 35 32 15 26 48 73 73 103 48 57 126 202 126 234 0 20 91 219
97 212 2 -2 13 -39 23 -82 32 -130 27 -191 -55 -649 -17 -96 -14 -279 7 -400
5 -33 10 -94 11 -135 1 -41 3 -63 5 -47 2 15 8 27 13 27 5 0 9 10 9 23 0 12 5
29 10 37 8 12 10 10 10 -10 1 -23 2 -23 11 -6 6 10 9 36 6 57 -3 22 -1 42 4
45 11 7 12 47 1 59 -37 43 -66 216 -51 305 23 135 59 229 59 154 0 -16 4 -23
11 -18 7 4 9 -1 5 -17 -4 -19 -3 -18 6 4 11 26 13 24 46 -65 52 -144 72 -226
71 -303 l-1 -70 -19 65 c-55 184 -83 270 -86 266 -2 -1 4 -32 13 -67 14 -53
16 -95 10 -248 -6 -192 3 -267 31 -257 17 7 17 7 -8 -50 -12 -26 -31 -55 -42
-64 -18 -15 -18 -17 -4 -23 10 -4 17 -1 17 6 0 9 2 9 8 0 16 -26 54 80 73 207
11 69 31 163 45 210 15 51 28 122 31 176 5 86 4 93 -15 103 -12 7 -30 37 -44
73 -21 58 -56 107 -145 201 -35 37 -36 38 -10 32 27 -7 27 -7 22 41 -2 27 -2
42 1 32 5 -15 34 -34 34 -21 0 12 -42 73 -51 73 -5 0 -9 11 -9 25 0 19 4 23
18 18 24 -8 42 -32 35 -48 -2 -8 0 -22 7 -32 9 -14 10 -8 5 32 -4 28 -7 58 -7
67 1 9 -8 20 -18 23 -18 6 -35 34 -25 43 3 3 14 -3 25 -13 11 -10 23 -15 27
-12 3 4 6 35 6 69 0 113 -1 115 -29 122 -25 7 -26 8 -8 27 13 15 19 16 26 7 6
-10 8 -9 8 4 0 9 -7 23 -15 32 -8 8 -11 17 -6 20 10 6 -13 61 -30 71 -15 10
-39 74 -32 90 3 9 -1 22 -8 31 -10 13 -10 17 1 24 8 5 12 12 9 15 -8 8 -39 -5
-39 -16 0 -5 -4 -9 -9 -9 -5 0 -7 10 -3 22 9 37 -14 12 -42 -46 -21 -44 -30
-53 -46 -49 -72 19 4 183 83 183 30 0 43 -16 28 -34 -19 -22 -2 -24 66 -5 37
10 69 15 72 10 4 -4 17 -12 30 -16 17 -5 22 -4 19 6 -2 7 -11 13 -19 15 -7 1
-39 10 -69 19 -88 27 -131 29 -165 7z"/>
<path d="M1795 2755 c-16 -8 -42 -14 -57 -15 -15 0 -34 -7 -42 -16 -28 -27
-18 -30 74 -25 13 1 13 2 0 11 -19 14 31 3 78 -16 23 -9 32 -19 32 -36 -1 -20
-2 -21 -11 -5 -5 9 -20 17 -31 17 -21 0 -21 0 -2 -15 19 -14 18 -15 -6 -35
l-25 -20 23 0 c12 0 22 -2 22 -5 0 -13 -30 -62 -45 -75 -13 -11 -18 -10 -29 5
-11 16 -13 16 -19 2 -3 -9 -2 -19 4 -23 5 -3 -4 -19 -21 -37 -16 -17 -33 -28
-36 -24 -4 3 1 13 10 22 20 21 21 29 1 21 -26 -9 -80 28 -81 55 0 14 -3 30 -7
36 -4 6 -4 18 -1 27 4 10 1 16 -7 17 -8 0 -6 4 4 8 17 6 17 8 4 20 -13 11 -17
7 -26 -26 -6 -21 -11 -46 -11 -55 0 -32 35 -85 63 -96 41 -16 25 -35 -22 -27
-37 6 -38 6 -38 -26 l0 -32 20 24 19 23 19 -24 c13 -17 19 -20 19 -10 1 9 5 7
12 -7 6 -13 15 -23 19 -23 5 0 7 -13 6 -30 -1 -18 -8 -30 -16 -30 -11 0 -11
-3 -1 -15 15 -18 7 -19 -23 -4 -19 8 -20 8 -7 -3 19 -17 50 -64 50 -78 0 -5
-15 -10 -32 -11 l-33 -1 33 -11 c18 -5 35 -8 38 -5 3 4 6 60 8 127 1 66 5 123
8 126 3 3 11 -1 17 -9 9 -11 10 -20 1 -35 -10 -19 -7 -242 3 -296 3 -11 1 -45
-3 -75 -5 -38 -3 -61 5 -72 6 -10 15 -15 18 -11 4 3 8 2 8 -3 7 -47 2 -58 -51
-123 -36 -45 -62 -87 -69 -114 -6 -28 -21 -52 -39 -65 -28 -22 -28 -23 -20
-96 4 -43 24 -121 47 -186 22 -61 45 -134 51 -163 27 -138 42 -191 66 -239 22
-42 28 -74 35 -165 7 -93 14 -125 40 -185 17 -40 40 -98 50 -128 22 -62 22
-65 -9 151 -13 86 -28 152 -42 180 -12 24 -25 55 -30 69 -4 14 -11 34 -16 44
-6 16 -4 18 11 12 18 -6 18 -6 2 12 -9 10 -17 23 -17 28 0 5 -9 26 -20 47 -13
23 -16 37 -8 37 6 0 8 3 5 7 -4 3 0 15 9 25 18 19 16 100 -7 263 -6 44 -8 114
-6 155 l6 75 -19 -65 c-10 -36 -23 -91 -30 -122 -19 -94 -34 -72 -27 40 4 70
14 121 35 182 16 47 34 101 39 120 8 26 11 29 12 13 1 -32 19 -29 27 5 3 15 7
32 8 37 5 15 35 -62 58 -145 15 -56 18 -91 14 -137 -8 -76 -41 -186 -61 -203
-20 -17 -20 -61 0 -54 15 6 16 1 31 -81 6 -37 8 -38 14 -15 7 25 7 25 23 -10
l15 -35 8 40 c15 70 11 454 -5 508 -7 26 -17 47 -21 47 -12 0 -50 96 -50 124
0 27 14 35 24 14 7 -15 -2 57 -11 86 -5 17 -6 18 -15 3 -9 -16 -48 -43 -48
-33 0 3 13 18 29 33 27 26 28 31 21 83 -4 30 -8 50 -9 44 0 -5 -8 -19 -17 -30
-14 -18 -15 -18 -4 4 12 25 -1 30 -20 7 -20 -24 -23 -10 -5 19 10 14 14 26 10
26 -4 0 -2 7 5 15 7 8 16 12 21 9 5 -3 9 13 9 36 0 42 -19 49 -21 7 0 -12 -3
-17 -5 -11 -3 7 -15 9 -27 6 -22 -5 -22 -5 -3 16 10 12 27 24 37 27 11 4 19
16 19 28 0 29 49 218 49 193 1 -10 21 -60 45 -110 24 -50 47 -107 51 -126 4
-19 17 -50 29 -70 12 -19 27 -47 34 -61 8 -14 40 -59 73 -100 33 -41 67 -91
76 -111 16 -37 33 -42 33 -10 0 17 -39 88 -125 230 -21 34 -40 61 -41 59 -2
-2 1 -18 6 -37 5 -19 8 -35 6 -37 -1 -2 -17 20 -35 49 -37 60 -56 134 -35 142
17 7 2 51 -40 120 -26 42 -31 60 -32 118 -1 57 1 68 15 68 17 0 68 -48 90 -85
l13 -20 -7 20 c-4 11 -9 47 -11 80 -5 97 -12 126 -39 167 -47 71 -119 95 -190
63z"/>
<path d="M1520 2660 c0 -5 5 -10 10 -10 6 0 10 -4 10 -9 0 -4 -12 -6 -27 -4
-24 4 -25 3 -10 -7 19 -12 23 -40 6 -40 -8 0 -8 -4 0 -14 16 -19 3 -49 -17
-41 -9 3 -13 3 -10 -1 14 -13 -13 -46 -33 -41 -25 7 -24 -1 3 -30 20 -22 21
-23 2 -23 -16 0 -19 -9 -22 -63 -4 -82 4 -113 23 -97 13 11 13 15 0 33 -21 30
-19 54 8 69 12 7 25 11 29 10 4 -1 10 7 13 18 8 24 21 26 29 5 5 -15 36 -21
36 -7 0 4 -9 24 -20 44 -13 25 -16 38 -8 40 16 6 22 116 9 151 -10 26 -31 38
-31 17z"/>
<path d="M3045 2394 c-35 -65 -53 -83 -64 -66 -9 15 -24 -33 -42 -130 -7 -38
-18 -68 -24 -68 -6 0 -22 -19 -35 -42 -21 -37 -24 -40 -32 -22 -8 17 -8 17 -4
-2 4 -24 -42 -115 -61 -122 -9 -2 -11 6 -8 30 l5 33 -16 -34 c-11 -24 -18 -31
-23 -22 -6 9 -12 3 -20 -20 -14 -40 -14 -42 1 -33 8 5 9 0 6 -14 -4 -12 -2
-20 3 -16 5 3 9 11 9 18 0 8 6 19 14 25 12 10 13 8 9 -8 -3 -12 -1 -21 6 -21
8 0 7 -10 -4 -30 -8 -16 -15 -46 -14 -67 1 -33 2 -35 8 -13 13 42 39 86 89
152 57 76 126 213 142 283 6 28 29 89 52 136 46 99 48 137 3 53z"/>
<path d="M1710 2103 c0 -6 -17 -18 -37 -26 l-38 -16 40 -1 c36 -1 38 -2 16
-11 -14 -5 -31 -7 -38 -5 -7 3 -13 1 -13 -4 0 -6 11 -10 25 -10 35 0 40 -20
25 -93 -20 -97 -39 -119 -53 -62 -3 14 -5 11 -6 -10 -1 -23 -3 -27 -11 -15 -8
12 -10 8 -11 -15 -1 -29 -1 -29 -13 8 -14 44 -26 39 -27 -12 -1 -20 -3 -28 -6
-18 -5 19 -23 24 -23 5 0 -6 -9 -3 -20 7 -11 10 -20 14 -21 9 0 -5 -11 34 -23
86 -19 78 -20 97 -9 106 19 16 16 24 -7 24 -25 0 -26 -29 -6 -109 8 -31 22
-87 31 -124 15 -58 20 -67 36 -62 11 4 19 2 19 -6 0 -9 4 -8 15 1 12 10 15 10
15 -3 0 -9 9 -21 20 -27 44 -23 73 24 100 160 37 190 40 214 30 224 -7 7 -10
6 -10 -1z"/>
<path d="M3167 1935 c-25 -53 -40 -160 -33 -243 4 -59 11 -82 31 -108 34 -45
40 -74 15 -74 -12 0 -27 -14 -39 -37 l-19 -37 -6 79 c-10 134 -10 186 3 288
15 118 9 140 -8 30 -7 -43 -21 -117 -32 -165 -15 -69 -19 -124 -18 -255 1
-148 13 -373 18 -333 17 150 42 284 61 325 28 61 29 63 40 45 35 -55 -32 -345
-103 -449 -20 -29 -37 -59 -37 -66 0 -7 -13 -45 -30 -83 -16 -39 -30 -79 -29
-89 0 -14 2 -15 6 -3 14 40 85 215 88 219 9 9 31 -26 33 -52 1 -16 -12 -83
-29 -150 -28 -110 -30 -124 -18 -161 7 -22 24 -52 36 -67 28 -33 28 -39 3 -89
-40 -78 -77 -279 -52 -287 6 -3 12 0 12 7 0 6 -5 8 -10 5 -13 -8 -2 43 12 62
5 7 7 16 4 21 -9 15 23 130 63 225 21 51 41 112 45 137 l5 45 -10 -37 c-11
-39 -17 -42 -55 -32 -32 9 -44 43 -33 98 14 75 49 186 74 237 13 26 20 51 16
55 -8 9 3 220 13 260 3 11 17 26 31 32 31 14 31 11 0 -43 -23 -38 -24 -43 -8
-41 19 1 19 1 9 -109 l-5 -50 15 47 c17 55 38 65 30 16 -10 -62 -18 -153 -12
-148 2 3 16 57 31 119 14 63 46 174 71 246 31 94 44 148 44 188 0 50 2 57 20
57 18 0 20 -7 20 -62 0 -35 11 -105 25 -158 14 -52 37 -153 50 -225 33 -175
35 -177 30 -47 -3 62 -1 111 3 108 5 -3 14 -31 21 -63 18 -79 22 -88 15 -28
-11 84 -10 120 4 117 15 -3 15 -2 -3 41 -20 47 -19 49 9 36 14 -7 27 -21 30
-34 6 -25 7 -130 2 -227 -2 -38 0 -68 4 -68 4 0 10 -10 13 -22 3 -13 13 -52
22 -88 10 -36 23 -94 30 -130 11 -56 13 -59 14 -26 0 21 -6 79 -15 128 -12 60
-14 92 -7 97 6 3 12 15 14 25 6 32 25 29 36 -6 7 -20 11 -26 12 -14 1 11 -12
40 -28 65 -57 90 -110 371 -84 440 17 42 53 -75 69 -223 7 -71 15 -131 18
-133 5 -5 12 54 27 225 12 144 9 286 -8 316 -8 15 -14 1 -29 -78 -17 -93 -18
-95 -30 -66 -7 17 -25 35 -40 40 l-27 11 26 27 c15 16 27 33 27 39 0 6 7 17
16 24 13 11 15 32 12 139 -7 197 -36 243 -134 205 -31 -12 -44 -22 -42 -33 2
-10 -3 -17 -13 -16 -8 1 -23 -12 -32 -27 -15 -28 -15 -29 3 -29 26 0 36 3 33
12 -2 4 7 10 20 14 12 4 25 11 28 16 8 12 71 -41 66 -56 -2 -6 2 -29 9 -51 15
-52 11 -115 -10 -159 -21 -45 -46 -59 -88 -48 -61 15 -119 169 -85 224 6 9 7
21 3 25 -5 4 -11 2 -13 -4 -8 -23 -22 -14 -43 27 -11 22 -25 40 -31 40 -6 0
-7 5 -4 10 3 6 -2 10 -11 10 -10 0 -15 3 -11 6 17 18 -54 54 -106 54 -40 0
-45 -3 -60 -35z m119 -47 c8 -7 21 -19 29 -25 7 -7 21 -13 29 -13 9 0 16 -8
16 -19 0 -11 4 -22 9 -25 12 -8 20 -66 9 -66 -5 0 -7 -9 -3 -19 5 -18 -33
-101 -59 -127 -6 -7 -28 -15 -48 -18 -73 -13 -99 52 -78 191 12 72 17 87 42
109 34 28 34 28 54 12z"/>
<path d="M1290 1019 c-7 -42 -15 -66 -20 -59 -11 17 -50 -90 -61 -168 -5 -38
-5 -99 0 -155 6 -51 13 -136 16 -190 4 -54 9 -96 12 -94 2 3 5 68 5 144 l1
138 11 -85 c5 -47 12 -74 14 -60 2 14 -1 76 -9 139 -14 123 -4 227 24 259 13
15 34 202 23 202 -2 0 -10 -32 -16 -71z"/>
<path d="M1901 920 c-1 -65 2 -90 9 -80 5 8 10 11 10 6 0 -5 6 -4 13 2 19 17
22 -10 22 -228 -1 -107 1 -183 3 -167 5 42 19 32 29 -20 l10 -48 7 57 c5 31 6
132 3 225 -3 144 -7 176 -26 223 -27 66 -46 89 -38 45 6 -28 5 -28 -9 5 -8 19
-19 44 -24 55 -6 14 -9 -10 -9 -75z"/>
<path d="M3580 900 c-7 -16 -9 -38 -5 -47 5 -10 9 -70 10 -133 1 -99 6 -126
29 -190 63 -169 72 -223 51 -320 l-6 -25 12 25 12 25 7 -25 c3 -14 2 -28 -3
-31 -5 -4 -2 -18 8 -33 10 -15 20 -25 22 -22 12 12 -44 303 -67 346 -16 30
-12 55 14 79 13 13 27 34 30 47 8 30 13 30 54 -5 l34 -29 -12 -127 c-7 -77 -8
-131 -2 -137 5 -5 12 18 15 59 10 101 17 301 11 281 -7 -22 -54 -20 -55 2 0 8
-3 10 -5 4 -3 -7 -13 -10 -23 -7 -12 3 -20 -2 -23 -15 -3 -10 -19 -24 -37 -30
-26 -9 -32 -8 -40 7 -5 9 -11 88 -13 174 -2 86 -4 157 -4 157 -1 0 -7 -13 -14
-30z"/>
<path d="M1402 879 c-1 -9 -13 -41 -26 -70 -19 -43 -27 -84 -36 -199 -6 -80
-13 -156 -16 -170 -3 -14 15 33 41 105 45 128 45 132 42 240 -1 61 -4 103 -5
94z"/>
<path d="M2010 253 l-1 -38 -17 28 c-18 29 -28 32 -52 17 -9 -6 -17 -5 -23 3
-5 7 -6 -14 -2 -48 3 -33 5 -72 5 -88 0 -29 26 -77 42 -77 5 0 6 5 3 10 -3 6
1 10 10 10 10 0 13 -5 9 -12 -5 -9 -3 -9 9 1 9 7 14 17 11 22 -3 5 0 9 6 9 6
0 13 -7 17 -15 5 -13 8 -13 20 5 8 11 18 18 23 15 4 -3 13 2 20 10 11 13 9 20
-13 43 -31 32 -59 95 -51 115 3 8 1 18 -5 22 -7 4 -11 -7 -11 -32z"/>
<path d="M1208 236 c-4 -28 -17 -60 -36 -87 -27 -36 -29 -43 -17 -56 8 -8 19
-12 24 -9 11 7 33 -18 24 -27 -3 -4 -3 -7 1 -7 5 0 17 11 28 26 11 14 23 23
26 20 3 -3 -2 -14 -12 -25 -16 -18 -16 -18 10 -13 20 4 25 2 19 -8 -5 -8 -3
-11 6 -8 8 3 14 16 14 30 1 14 6 32 13 40 6 8 10 17 7 20 -3 3 -7 23 -9 44 -7
65 -22 93 -45 87 -12 -3 -21 -1 -21 6 0 6 -6 11 -14 11 -8 0 -15 -16 -18 -44z"/>
</g>
</svg>
